# xmcd
#
# Track frame offsets:
#	182
#	15497
#	28867
#	41800
#	56187
#	70167
#	84057
#	95755
#	109682
#	123925
#	138445
#	152705
#	165385
#	181047
#
# Disc length: 2589
#
# Revision: 2
# Processed by: cddbd v1.5.1PL0 Copyright (c) Steve Scherf et al.
# Submitted via: EasyCDDAExtractor 7.5.0.1
# Normalized: r1:DSETVAR1
#
DISCID=ae0a1b0e
DTITLE=Various Artist - Radio Days 14 Good Old Memories
DYEAR=1900
DGENRE=Big Band
TTITLE0=Nat King Cole - Embraceable You
TTITLE1=Marilyn Monroe - I Wanna Be Loved By You
TTITLE2=The Mills Brothers - Paper Doll
TTITLE3=Bing Crosby - Where The Blue Of The Night Meets The Gold Of The Day
TTITLE4=The Andrews Sisters - Bei Mir Bist Du Schön
TTITLE5=The Ink Spots - Into Each Life Some Rain Must Fall
TTITLE6=Ella Fitzgerald - It's Only A Paper Moon
TTITLE7=Bing Crosby - Sweet And Lovely
TTITLE8=Billie Holiday - God Bless The Child
TTITLE9=The Mills Brothers - You Always Hurt The One You Love
TTITLE10=The Andrews Sisters - Rum and Coca Cola
TTITLE11=Judy Garland - Over The Rainbow
TTITLE12=Bing Crosby - Just One More Chance
TTITLE13=The Andrews Sisters - Don't Sit Under The AppleTree
EXTD=
EXTT0=
EXTT1=
EXTT2=
EXTT3=
EXTT4=
EXTT5=
EXTT6=
EXTT7=
EXTT8=
EXTT9=
EXTT10=
EXTT11=
EXTT12=
EXTT13=
PLAYORDER=
